HIERARCHY
ROOT Hips
{
	OFFSET 0.0000 0.0000 0.0000
	CHANNELS 6 Xposition Yposition Zposition Zrotation Xrotation Yrotation
	JOINT Spine1
	{
		OFFSET -0.0137 5.0038 -0.0537
		CHANNELS 3 Zrotation Xrotation Yrotation
		JOINT Spine2
		{
			OFFSET -0.0000 7.1253 -0.0298
			CHANNELS 3 Zrotation Xrotation Yrotation
			JOINT Chest
			{
				OFFSET -0.0000 7.5501 -0.8160
				CHANNELS 3 Zrotation Xrotation Yrotation
				JOINT Neck1
				{
					OFFSET -0.1817 26.3113 -0.5533
					CHANNELS 3 Zrotation Xrotation Yrotation
					JOINT Neck2
					{
						OFFSET -0.0000 7.7094 2.3026
						CHANNELS 3 Zrotation Xrotation Yrotation
						JOINT Head
						{
							OFFSET -0.0000 6.1289 1.9537
							CHANNELS 3 Zrotation Xrotation Yrotation
							JOINT Jaw
							{
								OFFSET 0.0026 0.4756 3.0949
								CHANNELS 3 Zrotation Xrotation Yrotation
								End Site
								{
									OFFSET 0.0 1.0 0.0
								}
							}
							JOINT LeftEye
							{
								OFFSET 3.2064 5.3802 7.5869
								CHANNELS 3 Zrotation Xrotation Yrotation
								End Site
								{
									OFFSET 0.0 1.0 0.0
								}
							}
							JOINT RightEye
							{
								OFFSET -3.2224 5.3619 7.5582
								CHANNELS 3 Zrotation Xrotation Yrotation
								End Site
								{
									OFFSET 0.0 1.0 0.0
								}
							}
						}
					}
				}
				JOINT LeftShoulder
				{
					OFFSET 1.6217 23.2372 5.1134
					CHANNELS 3 Zrotation Xrotation Yrotation
					JOINT LeftArm
					{
						OFFSET 14.9198 0.0000 -5.5023
						CHANNELS 3 Zrotation Xrotation Yrotation
						JOINT LeftForeArm
						{
							OFFSET 28.7393 0.0000 -0.0026
							CHANNELS 3 Zrotation Xrotation Yrotation
							JOINT LeftHand
							{
								OFFSET 27.0940 -0.0000 0.0026
								CHANNELS 3 Zrotation Xrotation Yrotation
								JOINT LeftHandThumbEnd
								{
									OFFSET 12.2686 -3.2202 4.8331
									CHANNELS 3 Zrotation Xrotation Yrotation
									End Site
									{
										OFFSET 0.0 1.0 0.0
									}
								}
								JOINT LeftHandMiddleEnd
								{
									OFFSET 19.0120 -0.3129 -0.0340
									CHANNELS 3 Zrotation Xrotation Yrotation
									End Site
									{
										OFFSET 0.0 1.0 0.0
									}
								}
							}
						}
					}
				}
				JOINT RightShoulder
				{
					OFFSET -1.3801 23.1803 5.2142
					CHANNELS 3 Zrotation Xrotation Yrotation
					JOINT RightArm
					{
						OFFSET -15.0372 0.0000 -5.5456
						CHANNELS 3 Zrotation Xrotation Yrotation
						JOINT RightForeArm
						{
							OFFSET -28.7366 0.0000 -0.0026
							CHANNELS 3 Zrotation Xrotation Yrotation
							JOINT RightHand
							{
								OFFSET -27.1336 -0.0000 0.0026
								CHANNELS 3 Zrotation Xrotation Yrotation
								JOINT RightHandThumbEnd
								{
									OFFSET -12.2642 -3.2115 4.8040
									CHANNELS 3 Zrotation Xrotation Yrotation
									End Site
									{
										OFFSET 0.0 1.0 0.0
									}
								}
								JOINT RightHandMiddleEnd
								{
									OFFSET -19.0006 -0.3066 -0.0316
									CHANNELS 3 Zrotation Xrotation Yrotation
									End Site
									{
										OFFSET 0.0 1.0 0.0
									}
								}
							}
						}
					}
				}
			}
		}
	}
	JOINT LeftLeg
	{
		OFFSET 10.0432 -8.4345 2.5957
		CHANNELS 3 Zrotation Xrotation Yrotation
		JOINT LeftShin
		{
			OFFSET -0.0000 -43.2218 -0.8029
			CHANNELS 3 Zrotation Xrotation Yrotation
			JOINT LeftFoot
			{
				OFFSET 0.0000 -42.1551 -3.4815
				CHANNELS 3 Zrotation Xrotation Yrotation
				JOINT LeftToeBase
				{
					OFFSET 0.0000 -5.0595 13.2315
					CHANNELS 3 Zrotation Xrotation Yrotation
					End Site
					{
						OFFSET 0.0 1.0 0.0
					}
				}
			}
		}
	}
	JOINT RightLeg
	{
		OFFSET -10.0473 -8.2953 2.6203
		CHANNELS 3 Zrotation Xrotation Yrotation
		JOINT RightShin
		{
			OFFSET 0.0000 -43.3622 -0.8056
			CHANNELS 3 Zrotation Xrotation Yrotation
			JOINT RightFoot
			{
				OFFSET 0.0000 -42.1174 -3.4784
				CHANNELS 3 Zrotation Xrotation Yrotation
				JOINT RightToeBase
				{
					OFFSET -0.0000 -5.0796 13.2842
					CHANNELS 3 Zrotation Xrotation Yrotation
					End Site
					{
						OFFSET 0.0 1.0 0.0
					}
				}
			}
		}
	}
}
MOTION
Frames: 12
Frame Time: 0.033333
-2.3431 99.2008 3.4259 -0.3659 3.3488 0.2703 3.4983 -2.4342 0.5196 -0.0578 -4.9735 2.8104 -3.0282 9.9563 0.0128 -1.5834 -6.4352 2.6890 0.1387 -3.5571 2.4109 -2.6890 -8.1181 3.0826 0.0335 -0.0035 -0.0523 0.7494 -10.5886 -3.9430 -0.6915 -10.6059 3.8415 -23.9877 9.0511 -8.0015 -61.5489 11.6978 -3.7762 -0.3832 0.1825 -22.1205 12.5969 -28.3020 -0.3713 -14.8060 10.9899 15.5195 -59.9608 1.3494 2.1014 17.0596 7.1376 17.4438 51.6689 1.3245 16.4556 0.5146 -0.2092 37.5016 -7.7530 -15.0251 7.8702 15.0843 7.4928 -15.7395 49.7741 -3.1371 -4.8196 6.2855 -26.4305 -1.3205 0.0015 18.9419 -0.1800 -4.2048 -1.6660 9.7766 1.6515 -3.4961 -2.0975 1.9190 1.3346 8.1132 -0.1146 6.7925 0.1159 -0.2993 -10.0738 -4.7100 -1.4387 0.3842 1.1343
-2.8605 99.5205 0.6378 -0.5969 3.1515 0.9207 3.5170 -2.2362 0.5413 -0.0438 -4.9390 2.7343 -2.8754 9.9861 -0.1216 -1.2924 -6.5332 2.6262 0.0095 -3.5405 2.2201 -2.7982 -8.6248 2.6884 0.0401 -0.0073 -0.0049 0.7663 -10.5566 -3.8910 -0.6932 -10.5769 3.8787 -23.5863 9.3356 -8.2061 -62.1931 10.9252 -3.9337 -0.5796 0.1422 -21.5260 11.4857 -27.4996 0.2356 -14.8576 11.0234 15.5046 -59.9174 1.4038 2.1413 17.4754 7.2549 17.2006 51.9412 2.0254 15.6940 0.4135 -0.1222 37.2169 -7.2522 -15.4489 8.0862 15.2389 7.4679 -15.8350 49.6947 -3.1847 -4.8956 6.5062 -24.3973 -2.0280 -0.0497 22.3679 -0.2551 -4.6527 -3.8085 10.2348 1.6819 -3.5504 -2.1328 2.2997 -0.5937 7.6956 -0.0853 7.3289 0.1445 -0.2635 -9.0364 -5.3378 -1.4406 0.6353 1.1008
-3.1868 99.6899 -1.9058 -0.7433 3.0453 1.5962 3.4626 -2.2313 0.5637 -0.0411 -4.9974 2.6038 -2.6973 10.0542 -0.1496 -0.9826 -6.3991 2.6205 -0.1135 -3.5095 1.9503 -3.0137 -8.8549 2.3609 0.0431 -0.0019 0.0011 0.7580 -10.5295 -3.8765 -0.6773 -10.5346 3.8727 -23.3717 9.5696 -8.4760 -62.3557 10.7684 -4.2305 -0.5701 0.1058 -22.0871 10.4541 -27.0603 0.7236 -14.8448 11.0684 15.5681 -59.9654 1.3224 2.2267 18.0339 7.3550 16.9504 52.2255 3.1222 14.7783 0.2730 -0.0406 36.1814 -6.7484 -15.9249 7.8665 15.3619 7.4275 -15.9272 49.6891 -3.2718 -5.0114 6.4980 -22.3370 -2.3790 -0.0870 26.7801 -0.3105 -4.8281 -5.8372 10.7153 1.7234 -3.4841 -2.1630 2.4817 -2.3165 7.0327 -0.0688 7.6119 0.1135 -0.1371 -8.0498 -5.5320 -1.4443 0.6031 1.0644
-3.4709 99.8174 -4.3275 -0.9138 3.0374 2.1322 3.4000 -2.3756 0.6294 -0.0258 -5.1395 2.4368 -2.4841 10.1214 -0.1274 -0.7502 -6.1746 2.6935 -0.2196 -3.4887 1.7675 -3.1701 -8.8576 2.1127 0.0381 0.0035 -0.0155 0.7386 -10.5408 -3.8886 -0.6659 -10.5254 3.8535 -23.3624 9.7107 -8.6274 -61.9585 10.9376 -4.5732 -0.5374 0.0733 -23.1774 9.8539 -26.9875 0.9081 -14.8387 11.0820 15.6143 -60.0783 1.2790 2.2464 18.6364 7.4163 16.8468 52.6113 4.4021 13.8253 0.2488 -0.0303 34.1019 -6.1985 -16.0049 7.1172 15.4735 7.4042 -16.0554 49.7769 -3.3402 -5.1088 6.4389 -20.0844 -2.2028 -0.0944 31.6977 -0.3460 -4.6615 -7.6550 11.3173 1.7722 -3.4633 -2.1861 2.5971 -3.9757 6.2454 -0.0686 7.7026 0.0716 0.0596 -7.0048 -5.3694 -1.4468 0.4184 1.0310
-3.7071 99.8972 -6.6155 -1.0833 3.1741 2.6249 3.3089 -2.6868 0.6992 -0.0035 -5.3354 2.2573 -2.2386 10.1557 -0.0826 -0.5859 -5.9547 2.7855 -0.3156 -3.4864 1.6484 -3.2682 -8.7054 1.9750 0.0282 0.0123 -0.0432 0.7298 -10.5496 -3.9131 -0.6757 -10.5206 3.8247 -23.5342 9.7398 -8.7342 -61.0280 11.1812 -4.9702 -0.5347 0.0260 -24.1241 9.5644 -26.9814 0.9619 -14.8613 11.0992 15.6427 -60.2029 1.2806 2.2369 19.2599 7.4229 16.8052 53.1453 5.6722 12.9421 0.3121 -0.0595 30.8264 -5.5462 -15.4065 5.6779 15.5976 7.3520 -16.1597 49.8716 -3.4230 -5.1512 6.3563 -17.5185 -1.5176 -0.0636 36.2880 -0.3614 -4.2182 -8.8131 11.7484 1.8089 -3.4812 -2.1813 2.6618 -5.7130 5.4306 -0.0495 7.7093 0.0208 0.3146 -5.8901 -5.0654 -1.4430 0.2393 1.0082
-3.9447 99.9275 -8.8720 -1.3214 3.3813 3.1789 3.2313 -3.0865 0.7805 0.0092 -5.5470 1.9829 -1.9251 10.1393 -0.0677 -0.4495 -5.7950 2.8838 -0.4050 -3.5016 1.5998 -3.3398 -8.4135 1.9002 0.0202 0.0142 -0.0682 0.7343 -10.5651 -3.9345 -0.6944 -10.5310 3.7996 -23.7367 9.6242 -8.8730 -59.8039 11.5367 -5.5014 -0.5353 -0.0057 -24.7273 9.3808 -26.8076 1.1467 -14.8763 11.1080 15.6764 -60.2826 1.2876 2.2643 19.8876 7.4131 16.7489 53.7841 6.8963 12.0724 0.4753 -0.0862 27.0444 -4.9899 -14.6537 3.9179 15.7077 7.2626 -16.2051 49.8826 -3.5445 -5.1333 6.5106 -14.4661 -0.5120 -0.0531 39.6660 -0.4404 -4.1095 -9.0735 11.6956 1.8281 -3.4794 -2.1559 2.7823 -7.5580 4.7292 -0.0218 7.8588 -0.0495 0.6641 -4.7426 -4.8461 -1.4352 0.0926 1.0128
-4.1601 99.8836 -11.1577 -1.6230 3.5694 3.8638 3.1788 -3.4826 0.7779 0.0140 -5.7491 1.6573 -1.5626 10.0943 -0.1565 -0.2965 -5.6830 2.9262 -0.4755 -3.5147 1.5736 -3.3792 -8.1240 1.9563 0.0124 0.0120 -0.0842 0.7417 -10.5778 -3.9459 -0.7158 -10.5372 3.7810 -23.7478 9.4140 -9.1098 -58.6529 12.0009 -6.2923 -0.5178 -0.0066 -25.1748 9.2796 -26.5349 1.3849 -14.9373 11.0995 15.6910 -60.3348 1.2939 2.2474 20.4216 7.4315 16.5097 54.5698 8.1847 11.2756 0.5795 -0.0829 23.8005 -4.5846 -14.2454 2.3657 15.7666 7.1744 -16.1933 49.7946 -3.6499 -5.1080 7.0119 -10.9406 0.5497 -0.0735 41.4967 -0.6520 -4.8796 -8.4467 10.3548 1.8368 -3.5700 -2.1275 2.9468 -9.5007 4.1466 -0.0049 8.3192 -0.1274 1.0364 -3.6992 -4.8105 -1.4258 -0.0028 1.0150
-4.2552 99.7863 -13.5211 -1.9024 3.7543 4.7058 3.0829 -3.8864 0.6993 0.0022 -5.9435 1.2759 -1.1933 10.0746 -0.3824 -0.0413 -5.6666 2.9205 -0.5176 -3.5116 1.5360 -3.4642 -7.8408 2.1841 0.0044 0.0074 -0.0942 0.7430 -10.5793 -3.9505 -0.7319 -10.5366 3.7669 -23.6198 9.1564 -9.4968 -57.5789 12.4296 -7.1389 -0.4914 -0.0058 -25.6910 9.4243 -26.5464 1.5038 -15.0368 11.0378 15.6610 -60.3254 1.2675 2.1697 20.9912 7.4524 16.0616 55.3083 9.5891 10.3754 0.5461 -0.0370 21.7979 -4.4635 -14.4806 1.3615 15.7745 7.1322 -16.1890 49.7065 -3.7591 -5.0787 7.7526 -7.0963 1.3888 -0.0808 41.7254 -0.9093 -6.3026 -6.9115 7.7164 1.8431 -3.8569 -2.1029 3.0370 -11.6232 3.6961 0.0003 9.1271 -0.2035 1.3859 -2.6919 -4.9427 -1.4175 -0.0569 1.0108
-4.2920 99.6330 -16.0456 -2.1212 3.9538 5.6779 2.9038 -4.2861 0.5590 -0.0415 -6.0978 0.8339 -0.8099 10.0591 -0.7013 0.3321 -5.7033 2.8273 -0.5181 -3.5062 1.4886 -3.5967 -7.5776 2.4602 -0.0010 0.0030 -0.0945 0.7444 -10.5835 -3.9459 -0.7429 -10.5428 3.7624 -23.3538 8.8844 -9.9983 -56.6332 12.6143 -7.9782 -0.4763 -0.0224 -26.2886 9.9443 -27.0072 1.4478 -15.1472 10.9301 15.6102 -60.2470 1.2188 2.1046 21.6044 7.4789 15.4309 55.8799 11.0221 9.2678 0.4158 0.0142 21.1724 -4.7961 -15.6233 1.1629 15.7866 7.1348 -16.2062 49.7002 -3.8430 -5.0484 8.5938 -3.1890 1.8847 -0.0524 40.6847 -1.1285 -8.2818 -4.7368 3.6696 1.8462 -4.4151 -2.0737 2.9692 -13.9375 3.3562 -0.0015 10.1822 -0.2616 1.7422 -1.6690 -5.2808 -1.4130 -0.0254 1.0099
-4.2531 99.4359 -18.7269 -2.2618 4.1736 6.7877 2.6338 -4.7042 0.3518 -0.1092 -6.2164 0.3583 -0.4389 10.0540 -1.0833 0.8314 -5.7223 2.5973 -0.4699 -3.4984 1.5573 -3.7912 -7.2989 2.7348 -0.0045 -0.0002 -0.0888 0.7485 -10.5887 -3.9408 -0.7534 -10.5548 3.7679 -22.9652 8.6355 -10.5526 -55.8711 12.5257 -8.8640 -0.4281 -0.0236 -26.9257 10.7798 -27.7124 1.2576 -15.2171 10.8301 15.5729 -60.0952 1.1582 2.0661 22.2269 7.4581 14.6700 56.3488 12.4368 8.0082 0.2255 0.0523 21.5864 -5.6619 -17.3039 1.6821 15.8218 7.1497 -16.2463 49.7728 -3.8844 -5.0575 9.3777 0.5883 1.9723 0.0019 38.5429 -1.2525 -10.9817 -2.5893 -1.7968 1.8457 -4.9989 -2.0300 2.7242 -16.3867 3.0330 -0.0128 11.3490 -0.2656 2.1530 -0.5137 -5.8686 -1.4105 0.0891 1.0272
-4.0880 99.2424 -21.5605 -2.2324 4.3415 8.0686 2.2089 -5.0883 0.1352 -0.2036 -6.3237 -0.1438 -0.1323 10.1355 -1.5038 1.4858 -5.7053 2.2377 -0.4132 -3.4848 1.7115 -4.0374 -6.9590 2.9130 0.0014 -0.0081 -0.0477 0.7587 -10.6035 -3.9036 -0.7507 -10.5771 3.8097 -22.4508 8.4780 -11.2157 -55.3052 11.9488 -9.7681 -0.3529 -0.0199 -27.6592 11.7823 -28.4368 1.0718 -15.2938 10.6952 15.5334 -59.9756 1.1016 2.0788 22.7897 7.4666 13.8059 56.8444 13.6382 6.7554 0.0310 0.0985 22.5227 -7.0064 -19.2336 2.7257 15.8731 7.1798 -16.3209 49.9190 -3.8925 -5.0737 9.7763 4.0505 1.7163 0.0564 35.2662 -1.2724 -13.5988 -0.3411 -7.5166 1.8384 -5.6350 -1.9898 2.1665 -18.7295 2.6936 -0.0162 12.2447 -0.2068 2.6375 0.9965 -6.7005 -1.4082 0.1945 1.0609
-3.8230 99.0655 -24.5848 -2.0611 4.3807 9.5125 1.6846 -5.3470 -0.0548 -0.3247 -6.4004 -0.6229 0.0723 10.2829 -1.9266 2.2818 -5.5063 1.8657 -0.3860 -3.4903 1.7799 -4.2778 -6.6313 2.8861 0.0115 -0.0130 0.0028 0.7712 -10.6277 -3.8604 -0.7418 -10.6057 3.8624 -21.7406 8.4502 -11.9271 -55.0650 10.9941 -10.8970 -0.1967 -0.0091 -28.6833 12.7011 -28.9003 0.8392 -15.3106 10.5942 15.5691 -59.8980 1.0707 2.1255 23.1118 7.5159 12.9395 57.6529 14.5551 5.9492 -0.1938 0.1784 23.2978 -8.2994 -21.0807 3.7671 15.9031 7.2265 -16.4157 50.0709 -3.9120 -5.0846 9.6738 6.8461 1.3242 0.0913 31.3252 -1.2314 -14.9764 1.6063 -11.9280 1.8337 -6.7850 -1.9850 1.2702 -20.7037 2.4820 -0.0094 12.5425 -0.1557 3.2521 2.9628 -7.6439 -1.4060 0.2309 1.0965
